ffmpeg started on 2026-01-18 at 20:49:22
Report written to "C:\Dev\OSPanel\domains\Java-AT\modules\ffmpeg\FFMetrics\reports\ssim_report-6.txt"
Log level: 32
Command line:
ffmpeg -hide_banner -nostdin -r 24000/1001 -i "F:\\Convert\\files\\[DC] Make Heroine ga Oosugiru - 07_Telegram_HEVC(168).mkv" -r 24000/1001 -i "F:\\Convert\\files\\[DC] Make Heroine ga Oosugiru - 07_Telegram.mp4" -lavfi "[0:v]settb=AVTB,setpts=PTS-STARTPTS,format=pix_fmts=yuv420p10le,fps=24000/1001,scale=1920:1080:flags=lanczos:param0=3:out_range=limited:out_color_matrix=bt709:out_chroma_loc=left,setsar=1/1,setdar=(1920/1080)*(1/1),colorspace=format=yuv420p10:range=tv:primaries=bt709:trc=bt709:space=bt709:fast=0[main];[1:v]settb=AVTB,setpts=PTS-STARTPTS,format=pix_fmts=yuv420p,fps=24000/1001,scale=1920:1080:flags=lanczos:param0=3:out_range=limited:out_color_matrix=bt709:out_chroma_loc=left,setsar=1.000,setdar=1.778,colorspace=format=yuv420p:range=tv:primaries=bt709:trc=bt709:space=bt709:fast=0[ref];[main][ref]ssim=eof_action=endall:stats_file='C\\:/Dev/OSPanel/domains/Java-AT/modules/ffmpeg/FFMetrics/logs/ssim_logfile-6.txt'" -f null -
Input #0, matroska,webm, from 'F:\Convert\files\[DC] Make Heroine ga Oosugiru - 07_Telegram_HEVC(168).mkv':
  Metadata:
    COMPATIBLE_BRANDS: isomiso2avc1mp41
    MAJOR_BRAND     : isom
    MINOR_VERSION   : 512
    ENCODER         : Lavf61.7.100
  Duration: 00:24:06.79, start: -0.021000, bitrate: 991 kb/s
  Stream #0:0: Video: hevc (Main 10), yuv420p10le(tv, bt709, progressive), 1920x1080 [SAR 1:1 DAR 16:9], 23.98 fps, 23.98 tbr, 1k tbn (default)
      Metadata:
        HANDLER_NAME    : VideoHandler
        VENDOR_ID       : [0][0][0][0]
        ENCODER         : Lavc61.19.100 libx265
        BPS             : 794176
        DURATION        : 00:24:06.569708333
        NUMBER_OF_FRAMES: 34683
        NUMBER_OF_BYTES : 143603950
        _STATISTICS_WRITING_APP: mkvpropedit v94.0 ('Initiate') 64-bit
        _STATISTICS_WRITING_DATE_UTC: 2026-01-18 11:18:06
        _STATISTICS_TAGS: BPS DURATION NUMBER_OF_FRAMES NUMBER_OF_BYTES
  Stream #0:1: Audio: aac (LC), 48000 Hz, stereo, fltp (default)
      Metadata:
        HANDLER_NAME    : SoundHandler
        VENDOR_ID       : [0][0][0][0]
        ENCODER         : Lavc61.19.100 aac
        BPS             : 193194
        DURATION        : 00:24:06.784000000
        NUMBER_OF_FRAMES: 67819
        NUMBER_OF_BYTES : 34938755
        _STATISTICS_WRITING_APP: mkvpropedit v94.0 ('Initiate') 64-bit
        _STATISTICS_WRITING_DATE_UTC: 2026-01-18 11:18:06
        _STATISTICS_TAGS: BPS DURATION NUMBER_OF_FRAMES NUMBER_OF_BYTES
Input #1, mov,mp4,m4a,3gp,3g2,mj2, from 'F:\Convert\files\[DC] Make Heroine ga Oosugiru - 07_Telegram.mp4':
  Metadata:
    major_brand     : isom
    minor_version   : 512
    compatible_brands: isomiso2avc1mp41
    encoder         : Lavf60.16.100
  Duration: 00:24:06.74, start: 0.000000, bitrate: 3764 kb/s
  Stream #1:0[0x1](und): Video: h264 (High) (avc1 / 0x31637661), yuv420p(tv, bt709, progressive), 1920x1080 [SAR 1:1 DAR 16:9], 3616 kb/s, 23.98 fps, 23.98 tbr, 24k tbn (default)
      Metadata:
        handler_name    : VideoHandler
        vendor_id       : [0][0][0][0]
        encoder         : Lavc60.31.102 h264_qsv
  Stream #1:1[0x2](und): Audio: aac (HE-AACv2) (mp4a / 0x6134706D), 48000 Hz, stereo, fltp, 144 kb/s (default)
      Metadata:
        handler_name    : SoundHandler
        vendor_id       : [0][0][0][0]
Stream mapping:
  Stream #0:0 (hevc) -> settb:default
  Stream #1:0 (h264) -> settb:default
  ssim:default -> Stream #0:0 (wrapped_avframe)
  Stream #0:1 -> #0:1 (aac (native) -> pcm_s16le (native))
Output #0, null, to 'pipe:':
  Metadata:
    COMPATIBLE_BRANDS: isomiso2avc1mp41
    MAJOR_BRAND     : isom
    MINOR_VERSION   : 512
    encoder         : Lavf61.7.100
  Stream #0:0: Video: wrapped_avframe, yuv420p10le(tv, bt709, progressive), 1920x1080 [SAR 1:1 DAR 16:9], q=2-31, 200 kb/s, 23.98 fps, 23.98 tbn
      Metadata:
        encoder         : Lavc61.19.100 wrapped_avframe
  Stream #0:1: Audio: pcm_s16le, 48000 Hz, stereo, s16, 1536 kb/s (default)
      Metadata:
        HANDLER_NAME    : SoundHandler
        VENDOR_ID       : [0][0][0][0]
        _STATISTICS_TAGS: BPS DURATION NUMBER_OF_FRAMES NUMBER_OF_BYTES
        BPS             : 193194
        DURATION        : 00:24:06.784000000
        NUMBER_OF_FRAMES: 67819
        NUMBER_OF_BYTES : 34938755
        _STATISTICS_WRITING_APP: mkvpropedit v94.0 ('Initiate') 64-bit
        _STATISTICS_WRITING_DATE_UTC: 2026-01-18 11:18:06
        encoder         : Lavc61.19.100 pcm_s16le
frame=  125 fps=0.0 q=-0.0 size=N/A time=00:00:05.21 bitrate=N/A speed=10.2x    frame=  299 fps=292 q=-0.0 size=N/A time=00:00:12.47 bitrate=N/A speed=12.2x    frame=  496 fps=320 q=-0.0 size=N/A time=00:00:20.68 bitrate=N/A speed=13.4x    frame=  690 fps=332 q=-0.0 size=N/A time=00:00:28.77 bitrate=N/A speed=13.9x    frame=  877 fps=339 q=-0.0 size=N/A time=00:00:36.57 bitrate=N/A speed=14.1x    frame= 1014 fps=327 q=-0.0 size=N/A time=00:00:42.29 bitrate=N/A speed=13.6x    frame= 1168 fps=322 q=-0.0 size=N/A time=00:00:48.71 bitrate=N/A speed=13.4x    frame= 1332 fps=322 q=-0.0 size=N/A time=00:00:55.55 bitrate=N/A speed=13.4x    frame= 1495 fps=321 q=-0.0 size=N/A time=00:01:02.35 bitrate=N/A speed=13.4x    frame= 1638 fps=317 q=-0.0 size=N/A time=00:01:08.31 bitrate=N/A speed=13.2x    frame= 1806 fps=317 q=-0.0 size=N/A time=00:01:15.32 bitrate=N/A speed=13.2x    frame= 1964 fps=316 q=-0.0 size=N/A time=00:01:21.91 bitrate=N/A speed=13.2x    frame= 2090 fps=311 q=-0.0 size=N/A time=00:01:27.17 bitrate=N/A speed=  13x    frame= 2240 fps=309 q=-0.0 size=N/A time=00:01:33.42 bitrate=N/A speed=12.9x    frame= 2382 fps=307 q=-0.0 size=N/A time=00:01:39.34 bitrate=N/A speed=12.8x    frame= 2525 fps=305 q=-0.0 size=N/A time=00:01:45.31 bitrate=N/A speed=12.7x    frame= 2680 fps=305 q=-0.0 size=N/A time=00:01:51.77 bitrate=N/A speed=12.7x    frame= 2852 fps=307 q=-0.0 size=N/A time=00:01:58.95 bitrate=N/A speed=12.8x    frame= 3020 fps=308 q=-0.0 size=N/A time=00:02:05.95 bitrate=N/A speed=12.8x    frame= 3222 fps=312 q=-0.0 size=N/A time=00:02:14.38 bitrate=N/A speed=  13x    frame= 3413 fps=314 q=-0.0 size=N/A time=00:02:22.35 bitrate=N/A speed=13.1x    frame= 3607 fps=317 q=-0.0 size=N/A time=00:02:30.44 bitrate=N/A speed=13.2x    frame= 3795 fps=319 q=-0.0 size=N/A time=00:02:38.28 bitrate=N/A speed=13.3x    frame= 3980 fps=321 q=-0.0 size=N/A time=00:02:45.99 bitrate=N/A speed=13.4x    frame= 4177 fps=323 q=-0.0 size=N/A time=00:02:54.21 bitrate=N/A speed=13.5x    frame= 4375 fps=326 q=-0.0 size=N/A time=00:03:02.47 bitrate=N/A speed=13.6x    frame= 4564 fps=327 q=-0.0 size=N/A time=00:03:10.35 bitrate=N/A speed=13.7x    frame= 4764 fps=329 q=-0.0 size=N/A time=00:03:18.69 bitrate=N/A speed=13.7x    frame= 4962 fps=331 q=-0.0 size=N/A time=00:03:26.95 bitrate=N/A speed=13.8x    frame= 5151 fps=332 q=-0.0 size=N/A time=00:03:34.83 bitrate=N/A speed=13.9x    frame= 5348 fps=334 q=-0.0 size=N/A time=00:03:43.05 bitrate=N/A speed=13.9x    frame= 5542 fps=335 q=-0.0 size=N/A time=00:03:51.14 bitrate=N/A speed=  14x    frame= 5744 fps=337 q=-0.0 size=N/A time=00:03:59.57 bitrate=N/A speed=  14x    frame= 5940 fps=338 q=-0.0 size=N/A time=00:04:07.74 bitrate=N/A speed=14.1x    frame= 6130 fps=339 q=-0.0 size=N/A time=00:04:15.67 bitrate=N/A speed=14.1x    frame= 6326 fps=340 q=-0.0 size=N/A time=00:04:23.84 bitrate=N/A speed=14.2x    frame= 6517 fps=341 q=-0.0 size=N/A time=00:04:31.81 bitrate=N/A speed=14.2x    frame= 6718 fps=342 q=-0.0 size=N/A time=00:04:40.19 bitrate=N/A speed=14.3x    frame= 6910 fps=343 q=-0.0 size=N/A time=00:04:48.20 bitrate=N/A speed=14.3x    frame= 7106 fps=344 q=-0.0 size=N/A time=00:04:56.37 bitrate=N/A speed=14.3x    frame= 7297 fps=345 q=-0.0 size=N/A time=00:05:04.34 bitrate=N/A speed=14.4x    frame= 7485 fps=345 q=-0.0 size=N/A time=00:05:12.18 bitrate=N/A speed=14.4x    frame= 7677 fps=346 q=-0.0 size=N/A time=00:05:20.19 bitrate=N/A speed=14.4x    frame= 7856 fps=346 q=-0.0 size=N/A time=00:05:27.66 bitrate=N/A speed=14.4x    frame= 8041 fps=346 q=-0.0 size=N/A time=00:05:35.37 bitrate=N/A speed=14.4x    frame= 8224 fps=346 q=-0.0 size=N/A time=00:05:43.00 bitrate=N/A speed=14.4x    frame= 8413 fps=347 q=-0.0 size=N/A time=00:05:50.89 bitrate=N/A speed=14.5x    frame= 8596 fps=347 q=-0.0 size=N/A time=00:05:58.52 bitrate=N/A speed=14.5x    frame= 8788 fps=347 q=-0.0 size=N/A time=00:06:06.53 bitrate=N/A speed=14.5x    frame= 8975 fps=348 q=-0.0 size=N/A time=00:06:14.33 bitrate=N/A speed=14.5x    frame= 9165 fps=348 q=-0.0 size=N/A time=00:06:22.25 bitrate=N/A speed=14.5x    frame= 9356 fps=349 q=-0.0 size=N/A time=00:06:30.22 bitrate=N/A speed=14.5x    frame= 9553 fps=349 q=-0.0 size=N/A time=00:06:38.43 bitrate=N/A speed=14.6x    frame= 9747 fps=350 q=-0.0 size=N/A time=00:06:46.53 bitrate=N/A speed=14.6x    frame= 9932 fps=350 q=-0.0 size=N/A time=00:06:54.24 bitrate=N/A speed=14.6x    frame=10109 fps=350 q=-0.0 size=N/A time=00:07:01.62 bitrate=N/A speed=14.6x    frame=10299 fps=350 q=-0.0 size=N/A time=00:07:09.55 bitrate=N/A speed=14.6x    frame=10481 fps=350 q=-0.0 size=N/A time=00:07:17.14 bitrate=N/A speed=14.6x    frame=10664 fps=350 q=-0.0 size=N/A time=00:07:24.77 bitrate=N/A speed=14.6x    frame=10840 fps=350 q=-0.0 size=N/A time=00:07:32.11 bitrate=N/A speed=14.6x    frame=11025 fps=350 q=-0.0 size=N/A time=00:07:39.83 bitrate=N/A speed=14.6x    frame=11210 fps=350 q=-0.0 size=N/A time=00:07:47.55 bitrate=N/A speed=14.6x    frame=11398 fps=350 q=-0.0 size=N/A time=00:07:55.39 bitrate=N/A speed=14.6x    frame=11594 fps=351 q=-0.0 size=N/A time=00:08:03.56 bitrate=N/A speed=14.6x    frame=11781 fps=351 q=-0.0 size=N/A time=00:08:11.36 bitrate=N/A speed=14.6x    frame=11973 fps=351 q=-0.0 size=N/A time=00:08:19.37 bitrate=N/A speed=14.7x    frame=12173 fps=352 q=-0.0 size=N/A time=00:08:27.71 bitrate=N/A speed=14.7x    frame=12368 fps=352 q=-0.0 size=N/A time=00:08:35.84 bitrate=N/A speed=14.7x    frame=12558 fps=352 q=-0.0 size=N/A time=00:08:43.77 bitrate=N/A speed=14.7x    frame=12756 fps=353 q=-0.0 size=N/A time=00:08:52.03 bitrate=N/A speed=14.7x    frame=12951 fps=353 q=-0.0 size=N/A time=00:09:00.16 bitrate=N/A speed=14.7x    frame=13140 fps=353 q=-0.0 size=N/A time=00:09:08.04 bitrate=N/A speed=14.7x    frame=13314 fps=353 q=-0.0 size=N/A time=00:09:15.30 bitrate=N/A speed=14.7x    frame=13501 fps=353 q=-0.0 size=N/A time=00:09:23.10 bitrate=N/A speed=14.7x    frame=13698 fps=354 q=-0.0 size=N/A time=00:09:31.32 bitrate=N/A speed=14.8x    frame=13891 fps=354 q=-0.0 size=N/A time=00:09:39.37 bitrate=N/A speed=14.8x    frame=14075 fps=354 q=-0.0 size=N/A time=00:09:47.04 bitrate=N/A speed=14.8x    frame=14250 fps=354 q=-0.0 size=N/A time=00:09:54.34 bitrate=N/A speed=14.8x    frame=14446 fps=354 q=-0.0 size=N/A time=00:10:02.51 bitrate=N/A speed=14.8x    frame=14633 fps=354 q=-0.0 size=N/A time=00:10:10.31 bitrate=N/A speed=14.8x    frame=14820 fps=354 q=-0.0 size=N/A time=00:10:18.11 bitrate=N/A speed=14.8x    frame=15009 fps=354 q=-0.0 size=N/A time=00:10:26.00 bitrate=N/A speed=14.8x    frame=15166 fps=354 q=-0.0 size=N/A time=00:10:32.54 bitrate=N/A speed=14.8x    frame=15359 fps=354 q=-0.0 size=N/A time=00:10:40.59 bitrate=N/A speed=14.8x    frame=15557 fps=354 q=-0.0 size=N/A time=00:10:48.85 bitrate=N/A speed=14.8x    frame=15746 fps=355 q=-0.0 size=N/A time=00:10:56.73 bitrate=N/A speed=14.8x    frame=15932 fps=355 q=-0.0 size=N/A time=00:11:04.49 bitrate=N/A speed=14.8x    frame=16123 fps=355 q=-0.0 size=N/A time=00:11:12.46 bitrate=N/A speed=14.8x    frame=16319 fps=355 q=-0.0 size=N/A time=00:11:20.63 bitrate=N/A speed=14.8x    frame=16507 fps=355 q=-0.0 size=N/A time=00:11:28.47 bitrate=N/A speed=14.8x    frame=16703 fps=356 q=-0.0 size=N/A time=00:11:36.65 bitrate=N/A speed=14.8x    frame=16892 fps=356 q=-0.0 size=N/A time=00:11:44.53 bitrate=N/A speed=14.8x    frame=17092 fps=356 q=-0.0 size=N/A time=00:11:52.87 bitrate=N/A speed=14.8x    frame=17282 fps=356 q=-0.0 size=N/A time=00:12:00.80 bitrate=N/A speed=14.9x    frame=17476 fps=356 q=-0.0 size=N/A time=00:12:08.89 bitrate=N/A speed=14.9x    frame=17659 fps=356 q=-0.0 size=N/A time=00:12:16.52 bitrate=N/A speed=14.9x    frame=17860 fps=357 q=-0.0 size=N/A time=00:12:24.91 bitrate=N/A speed=14.9x    frame=18049 fps=357 q=-0.0 size=N/A time=00:12:32.79 bitrate=N/A speed=14.9x    frame=18235 fps=357 q=-0.0 size=N/A time=00:12:40.55 bitrate=N/A speed=14.9x    frame=18425 fps=357 q=-0.0 size=N/A time=00:12:48.47 bitrate=N/A speed=14.9x    frame=18622 fps=357 q=-0.0 size=N/A time=00:12:56.69 bitrate=N/A speed=14.9x    frame=18821 fps=357 q=-0.0 size=N/A time=00:13:04.99 bitrate=N/A speed=14.9x    frame=19008 fps=357 q=-0.0 size=N/A time=00:13:12.79 bitrate=N/A speed=14.9x    frame=19204 fps=358 q=-0.0 size=N/A time=00:13:20.96 bitrate=N/A speed=14.9x    frame=19401 fps=358 q=-0.0 size=N/A time=00:13:29.18 bitrate=N/A speed=14.9x    frame=19597 fps=358 q=-0.0 size=N/A time=00:13:37.35 bitrate=N/A speed=14.9x    frame=19795 fps=358 q=-0.0 size=N/A time=00:13:45.61 bitrate=N/A speed=14.9x    frame=19985 fps=358 q=-0.0 size=N/A time=00:13:53.54 bitrate=N/A speed=14.9x    frame=20181 fps=359 q=-0.0 size=N/A time=00:14:01.71 bitrate=N/A speed=  15x    frame=20381 fps=359 q=-0.0 size=N/A time=00:14:10.05 bitrate=N/A speed=  15x    frame=20565 fps=359 q=-0.0 size=N/A time=00:14:17.73 bitrate=N/A speed=  15x    frame=20753 fps=359 q=-0.0 size=N/A time=00:14:25.57 bitrate=N/A speed=  15x    frame=20957 fps=359 q=-0.0 size=N/A time=00:14:34.08 bitrate=N/A speed=  15x    frame=21148 fps=359 q=-0.0 size=N/A time=00:14:42.04 bitrate=N/A speed=  15x    frame=21333 fps=359 q=-0.0 size=N/A time=00:14:49.76 bitrate=N/A speed=  15x    frame=21521 fps=359 q=-0.0 size=N/A time=00:14:57.60 bitrate=N/A speed=  15x    frame=21711 fps=359 q=-0.0 size=N/A time=00:15:05.52 bitrate=N/A speed=  15x    frame=21915 fps=360 q=-0.0 size=N/A time=00:15:14.03 bitrate=N/A speed=  15x    frame=22108 fps=360 q=-0.0 size=N/A time=00:15:22.08 bitrate=N/A speed=  15x    frame=22294 fps=360 q=-0.0 size=N/A time=00:15:29.84 bitrate=N/A speed=  15x    frame=22481 fps=360 q=-0.0 size=N/A time=00:15:37.64 bitrate=N/A speed=  15x    frame=22677 fps=360 q=-0.0 size=N/A time=00:15:45.81 bitrate=N/A speed=  15x    frame=22857 fps=360 q=-0.0 size=N/A time=00:15:53.32 bitrate=N/A speed=  15x    frame=23037 fps=360 q=-0.0 size=N/A time=00:16:00.83 bitrate=N/A speed=  15x    frame=23216 fps=360 q=-0.0 size=N/A time=00:16:08.30 bitrate=N/A speed=  15x    frame=23408 fps=360 q=-0.0 size=N/A time=00:16:16.30 bitrate=N/A speed=  15x    frame=23595 fps=360 q=-0.0 size=N/A time=00:16:24.10 bitrate=N/A speed=  15x    frame=23776 fps=360 q=-0.0 size=N/A time=00:16:31.65 bitrate=N/A speed=  15x    frame=23967 fps=360 q=-0.0 size=N/A time=00:16:39.62 bitrate=N/A speed=  15x    frame=24150 fps=360 q=-0.0 size=N/A time=00:16:47.25 bitrate=N/A speed=  15x    frame=24334 fps=360 q=-0.0 size=N/A time=00:16:54.93 bitrate=N/A speed=  15x    frame=24520 fps=360 q=-0.0 size=N/A time=00:17:02.68 bitrate=N/A speed=  15x    frame=24713 fps=360 q=-0.0 size=N/A time=00:17:10.73 bitrate=N/A speed=  15x    frame=24908 fps=360 q=-0.0 size=N/A time=00:17:18.87 bitrate=N/A speed=  15x    frame=25102 fps=360 q=-0.0 size=N/A time=00:17:26.96 bitrate=N/A speed=  15x    frame=25297 fps=360 q=-0.0 size=N/A time=00:17:35.09 bitrate=N/A speed=  15x    frame=25494 fps=361 q=-0.0 size=N/A time=00:17:43.31 bitrate=N/A speed=  15x    frame=25692 fps=361 q=-0.0 size=N/A time=00:17:51.57 bitrate=N/A speed=  15x    frame=25879 fps=361 q=-0.0 size=N/A time=00:17:59.36 bitrate=N/A speed=  15x    frame=26065 fps=361 q=-0.0 size=N/A time=00:18:07.12 bitrate=N/A speed=  15x    frame=26254 fps=361 q=-0.0 size=N/A time=00:18:15.01 bitrate=N/A speed=  15x    frame=26449 fps=361 q=-0.0 size=N/A time=00:18:23.14 bitrate=N/A speed=15.1x    frame=26631 fps=361 q=-0.0 size=N/A time=00:18:30.73 bitrate=N/A speed=  15x    frame=26821 fps=361 q=-0.0 size=N/A time=00:18:38.65 bitrate=N/A speed=15.1x    frame=27002 fps=361 q=-0.0 size=N/A time=00:18:46.20 bitrate=N/A speed=  15x    frame=27177 fps=361 q=-0.0 size=N/A time=00:18:53.50 bitrate=N/A speed=  15x    frame=27360 fps=361 q=-0.0 size=N/A time=00:19:01.14 bitrate=N/A speed=  15x    frame=27547 fps=361 q=-0.0 size=N/A time=00:19:08.93 bitrate=N/A speed=  15x    frame=27740 fps=361 q=-0.0 size=N/A time=00:19:16.98 bitrate=N/A speed=  15x    frame=27930 fps=361 q=-0.0 size=N/A time=00:19:24.91 bitrate=N/A speed=  15x    frame=28122 fps=361 q=-0.0 size=N/A time=00:19:32.92 bitrate=N/A speed=15.1x    frame=28310 fps=361 q=-0.0 size=N/A time=00:19:40.76 bitrate=N/A speed=15.1x    frame=28511 fps=361 q=-0.0 size=N/A time=00:19:49.14 bitrate=N/A speed=15.1x    frame=28702 fps=361 q=-0.0 size=N/A time=00:19:57.11 bitrate=N/A speed=15.1x    frame=28869 fps=361 q=-0.0 size=N/A time=00:20:04.07 bitrate=N/A speed=15.1x    frame=29042 fps=361 q=-0.0 size=N/A time=00:20:11.29 bitrate=N/A speed=  15x    frame=29228 fps=361 q=-0.0 size=N/A time=00:20:19.05 bitrate=N/A speed=  15x    frame=29405 fps=361 q=-0.0 size=N/A time=00:20:26.43 bitrate=N/A speed=  15x    frame=29576 fps=360 q=-0.0 size=N/A time=00:20:33.56 bitrate=N/A speed=  15x    frame=29752 fps=360 q=-0.0 size=N/A time=00:20:40.90 bitrate=N/A speed=  15x    frame=29935 fps=360 q=-0.0 size=N/A time=00:20:48.53 bitrate=N/A speed=  15x    frame=30102 fps=360 q=-0.0 size=N/A time=00:20:55.50 bitrate=N/A speed=  15x    frame=30298 fps=360 q=-0.0 size=N/A time=00:21:03.67 bitrate=N/A speed=  15x    frame=30489 fps=360 q=-0.0 size=N/A time=00:21:11.64 bitrate=N/A speed=  15x    frame=30685 fps=360 q=-0.0 size=N/A time=00:21:19.82 bitrate=N/A speed=  15x    frame=30873 fps=360 q=-0.0 size=N/A time=00:21:27.66 bitrate=N/A speed=  15x    frame=31056 fps=360 q=-0.0 size=N/A time=00:21:35.29 bitrate=N/A speed=  15x    frame=31238 fps=360 q=-0.0 size=N/A time=00:21:42.88 bitrate=N/A speed=  15x    frame=31422 fps=360 q=-0.0 size=N/A time=00:21:50.55 bitrate=N/A speed=  15x    frame=31609 fps=360 q=-0.0 size=N/A time=00:21:58.35 bitrate=N/A speed=  15x    frame=31788 fps=360 q=-0.0 size=N/A time=00:22:05.82 bitrate=N/A speed=  15x    frame=31966 fps=360 q=-0.0 size=N/A time=00:22:13.24 bitrate=N/A speed=  15x    frame=32152 fps=360 q=-0.0 size=N/A time=00:22:21.00 bitrate=N/A speed=  15x    frame=32338 fps=360 q=-0.0 size=N/A time=00:22:28.76 bitrate=N/A speed=  15x    frame=32527 fps=360 q=-0.0 size=N/A time=00:22:36.64 bitrate=N/A speed=  15x    frame=32686 fps=360 q=-0.0 size=N/A time=00:22:43.27 bitrate=N/A speed=  15x    frame=32844 fps=360 q=-0.0 size=N/A time=00:22:49.86 bitrate=N/A speed=  15x    frame=33027 fps=360 q=-0.0 size=N/A time=00:22:57.50 bitrate=N/A speed=  15x    frame=33210 fps=360 q=-0.0 size=N/A time=00:23:05.13 bitrate=N/A speed=  15x    frame=33394 fps=360 q=-0.0 size=N/A time=00:23:12.80 bitrate=N/A speed=  15x    frame=33556 fps=359 q=-0.0 size=N/A time=00:23:19.56 bitrate=N/A speed=  15x    frame=33708 fps=359 q=-0.0 size=N/A time=00:23:25.90 bitrate=N/A speed=  15x    frame=33838 fps=358 q=-0.0 size=N/A time=00:23:31.32 bitrate=N/A speed=14.9x    frame=33982 fps=358 q=-0.0 size=N/A time=00:23:37.33 bitrate=N/A speed=14.9x    frame=34149 fps=358 q=-0.0 size=N/A time=00:23:44.29 bitrate=N/A speed=14.9x    frame=34300 fps=357 q=-0.0 size=N/A time=00:23:50.59 bitrate=N/A speed=14.9x    frame=34426 fps=357 q=-0.0 size=N/A time=00:23:55.85 bitrate=N/A speed=14.9x    frame=34608 fps=357 q=-0.0 size=N/A time=00:24:03.44 bitrate=N/A speed=14.9x    [Parsed_ssim_16 @ 0000018a01c1fcc0] SSIM Y:0.994166 (22.340224) U:0.993990 (22.211527) V:0.993597 (21.936032) All:0.994042 (22.248822)
[out#0/null @ 0000018a746c3a00] video:14903KiB audio:271276KiB subtitle:0KiB other streams:0KiB global headers:0KiB muxing overhead: unknown
frame=34683 fps=357 q=-0.0 Lsize=N/A time=00:24:06.57 bitrate=N/A speed=14.9x    
